<?xml version="1.0" standalone="no"?>
<!DOCTYPE svg PUBLIC "-//W3C//DTD SVG 20010904//EN"
 "http://www.w3.org/TR/2001/REC-SVG-20010904/DTD/svg10.dtd">
<svg version="1.0" xmlns="http://www.w3.org/2000/svg"
 width="400.000000pt" height="400.000000pt" viewBox="0 0 400.000000 400.000000"
 preserveAspectRatio="xMidYMid meet">
<metadata>
Created by potrace 1.15, written by Peter Selinger 2001-2017
</metadata>
<g transform="translate(0.000000,400.000000) scale(0.100000,-0.100000)"
fill="#000000" stroke="none">
<path d="M333 3989 c9 -5 17 -19 17 -30 0 -11 5 -29 10 -40 6 -10 7 -19 2 -19
-4 0 -8 -12 -7 -27 0 -19 -5 -28 -16 -27 -9 1 -15 -7 -15 -20 1 -12 -4 -20
-10 -19 -7 1 -19 -6 -28 -16 -13 -14 -14 -21 -5 -27 7 -4 10 -3 6 3 -4 6 -1
16 7 22 10 8 17 6 32 -11 15 -19 16 -20 2 -9 -16 12 -18 11 -17 -10 1 -13 -2
-32 -6 -41 -5 -12 -3 -18 6 -18 10 0 10 -3 3 -8 -6 -4 -14 -20 -18 -36 -7 -28
-7 -28 -25 -10 -10 11 -17 22 -14 27 4 6 -11 11 -29 9 -3 -1 -9 5 -12 14 -4
10 -2 13 7 8 6 -3 0 4 -14 17 -14 13 -24 29 -22 36 2 6 -1 14 -6 18 -7 3 -8 0
-5 -9 3 -9 2 -16 -4 -16 -5 0 -7 -12 -4 -26 4 -20 1 -25 -9 -22 -8 3 -15 18
-16 34 -3 62 -23 147 -23 99 0 -15 -3 -14 -19 6 -10 13 -21 34 -25 47 -4 12
-14 22 -23 22 -10 0 -13 6 -9 16 5 14 4 15 -9 4 -13 -11 -14 -10 -9 6 6 15 4
17 -6 7 -7 -6 -14 -30 -16 -52 -4 -39 2 -46 29 -42 12 2 8 -11 -8 -23 -20 -15
-8 -56 16 -56 11 0 19 -3 18 -7 -2 -16 14 -53 23 -53 12 0 6 -40 -7 -43 -5 -1
-11 13 -13 31 -2 20 -9 32 -18 32 -8 0 -14 5 -14 10 0 6 -8 10 -17 10 -15 0
-13 -4 7 -21 22 -19 23 -20 4 -16 -19 4 -20 -1 -21 -74 -1 -61 1 -79 12 -79 8
0 17 -5 21 -12 5 -8 0 -9 -14 -6 -21 6 -22 3 -22 -58 0 -70 -3 -66 75 -91 33
-10 44 -10 185 2 52 5 99 9 104 9 13 1 95 257 105 327 4 31 7 74 6 95 -1 35
-3 39 -26 37 -30 -2 -36 27 -7 35 19 5 22 21 12 60 -7 26 -24 30 -24 4 0 -9
-10 -23 -22 -31 -21 -13 -22 -13 -10 2 15 18 8 37 -14 37 -8 0 -14 5 -14 11 0
6 9 9 19 6 10 -2 25 -1 32 4 9 5 -9 9 -46 9 -46 -1 -56 -3 -42 -11z"/>
<path d="M870 3969 c5 -16 5 -29 1 -29 -9 0 -35 -51 -33 -63 4 -16 -61 2 -84
24 -13 12 -24 17 -24 11 0 -7 -7 -12 -15 -12 -8 0 -15 5 -15 10 0 6 -3 9 -7 9
-20 -3 -23 3 -13 21 7 14 8 26 1 38 -9 15 -10 15 -11 -5 0 -35 -11 -53 -31
-53 -10 0 -19 -5 -19 -11 0 -5 -5 -7 -10 -4 -6 4 -8 9 -6 13 2 4 -2 12 -9 19
-11 10 -14 10 -18 0 -5 -16 -58 -15 -76 1 -21 20 -23 9 -10 -58 15 -78 7 -180
-21 -249 -14 -38 -18 -57 -10 -65 5 -5 10 -6 10 -1 0 5 6 1 13 -9 10 -13 27
-18 68 -18 38 0 48 -2 34 -8 -11 -5 -15 -9 -10 -11 45 -9 65 -11 98 -12 20 -1
37 -5 37 -9 0 -5 5 -8 11 -8 5 0 7 5 3 12 -4 7 -3 8 5 4 15 -9 121 -13 115 -5
-2 4 7 7 20 7 34 0 67 25 177 138 53 55 101 100 107 101 20 5 13 -15 -7 -22
-10 -3 -51 -41 -91 -85 l-71 -80 92 -60 92 -59 33 28 c39 35 129 98 121 85 -3
-5 -30 -27 -61 -49 -31 -22 -56 -43 -56 -47 0 -5 12 -8 28 -9 45 -1 88 -8 113
-19 25 -11 1 -9 -102 6 -28 4 -39 3 -35 -4 11 -18 -47 -9 -69 11 -11 10 -53
38 -93 64 l-73 45 -22 -20 c-33 -30 -102 -62 -158 -72 -77 -15 -169 3 -263 51
-43 22 -79 39 -81 37 -1 -2 -17 -41 -36 -88 l-35 -85 -66 -6 c-76 -6 -106 -26
-88 -59 6 -11 16 -20 23 -20 8 0 7 -4 -3 -11 -13 -9 -13 -10 0 -6 9 2 16 18
18 36 3 24 0 31 -9 25 -7 -4 -10 -3 -6 4 4 5 17 8 30 5 18 -4 19 -3 7 6 -8 6
-10 11 -4 11 18 0 24 -12 13 -26 -6 -7 -8 -18 -4 -25 6 -8 9 -8 15 1 10 16 26
6 33 -20 4 -16 2 -18 -13 -10 -25 13 -36 -5 -18 -27 9 -12 10 -15 0 -9 -7 4
-15 1 -18 -8 -3 -9 -10 -13 -15 -10 -5 3 -9 1 -9 -5 0 -5 -6 -11 -13 -14 -6
-2 -4 -3 5 -2 10 2 20 -5 23 -16 4 -11 11 -17 16 -13 6 4 6 11 -2 20 -16 19
-5 28 18 15 10 -6 13 -11 8 -11 -6 0 -11 -15 -12 -32 -2 -59 -1 -59 -29 -52
-16 4 -25 3 -21 -2 3 -6 -2 -10 -12 -11 -11 -1 -23 9 -30 24 -10 22 -10 25 2
15 14 -12 27 -7 27 11 0 6 -3 7 -7 4 -3 -4 -12 -2 -20 4 -7 6 -13 8 -13 4 0
-4 -9 3 -21 16 l-20 24 17 -28 c9 -15 14 -30 10 -34 -3 -3 -6 -1 -6 6 0 8 -6
11 -16 7 -8 -3 -13 -2 -10 3 3 5 -8 11 -25 15 -21 4 -29 11 -27 23 2 12 -4 19
-19 21 -14 2 -23 10 -23 20 0 15 2 15 10 2 7 -11 9 -5 7 22 -1 20 -4 34 -6 32
-3 -2 -15 5 -27 17 -12 12 -27 18 -33 14 -7 -4 -11 -76 -11 -210 0 -189 1
-205 19 -214 26 -15 110 -33 150 -33 19 0 45 -4 57 -8 19 -7 23 -5 28 16 4 14
4 30 0 36 -5 7 -2 8 6 3 10 -6 12 -4 6 11 -4 10 -4 15 0 12 9 -10 45 62 37 75
-3 6 -1 7 5 3 7 -4 12 -4 13 1 0 4 2 16 4 26 2 10 -3 21 -11 24 -12 4 -11 9 5
23 16 13 18 19 8 29 -9 10 -8 11 4 6 10 -4 20 -1 25 6 5 8 3 10 -7 4 -11 -6
-12 -5 -1 6 10 11 8 16 -10 27 -23 13 -23 13 4 9 25 -4 28 0 34 29 3 19 4 51
0 71 -4 27 -3 32 4 18 24 -55 -5 -192 -70 -328 -28 -56 -51 -117 -52 -134 -1
-18 -4 -33 -6 -33 -3 0 -21 10 -40 22 -19 12 -75 29 -124 38 l-88 17 0 -209 0
-208 28 0 c39 0 121 -43 176 -91 52 -46 57 -58 21 -51 -14 2 -23 8 -20 12 3 4
-3 11 -12 14 -11 5 -23 -1 -35 -16 -16 -22 -16 -23 3 -26 10 -2 17 -8 13 -13
-3 -5 -10 -6 -16 -3 -8 5 -9 1 -5 -10 6 -14 3 -16 -13 -11 -24 8 -26 -1 -5
-21 8 -9 15 -21 15 -27 0 -7 -4 -6 -10 3 -5 8 -10 10 -10 4 0 -6 7 -17 15 -24
10 -9 12 -16 5 -25 -20 -24 33 -48 56 -25 19 19 128 50 174 50 52 0 94 -24
103 -61 5 -20 5 -20 -13 -4 -17 15 -21 15 -67 -9 -27 -13 -55 -32 -63 -40 -8
-10 -20 -14 -33 -10 -23 7 -99 -15 -91 -27 3 -5 1 -9 -4 -9 -30 0 -75 -81 -65
-119 3 -10 0 -22 -6 -25 -6 -4 -11 -15 -11 -24 0 -15 2 -15 11 -2 9 12 10 11
6 -8 -3 -12 -1 -20 4 -16 5 3 9 0 9 -5 0 -23 20 -10 26 17 9 36 68 144 91 163
10 9 33 25 51 35 31 18 35 18 62 2 25 -14 32 -14 55 -2 42 22 98 18 123 -9 32
-33 72 -129 79 -186 5 -45 4 -51 -13 -51 -22 0 -57 20 -36 20 10 0 10 5 -2 22
-9 12 -16 32 -16 44 0 22 -26 51 -36 41 -4 -3 3 -32 13 -64 18 -52 19 -63 7
-105 -21 -70 -106 -135 -129 -98 -3 6 4 10 18 10 14 0 30 7 37 15 7 8 9 15 5
15 -4 0 1 12 11 28 15 21 19 47 20 119 1 87 0 92 -23 102 -18 8 -30 8 -50 -2
l-25 -14 40 -34 c43 -37 62 -81 41 -94 -8 -5 -10 -4 -5 3 4 6 -2 20 -14 32
l-20 20 -6 -40 c-4 -22 -10 -40 -15 -40 -14 0 -11 24 7 59 16 31 15 33 -7 57
-12 13 -28 24 -35 24 -21 0 -57 -59 -51 -86 2 -13 0 -24 -4 -24 -5 0 -9 3 -9
8 0 4 -7 15 -14 25 -12 15 -18 17 -36 7 -12 -6 -23 -10 -26 -8 -2 3 10 31 26
64 16 32 30 64 30 71 0 6 5 15 12 19 7 4 8 3 4 -4 -10 -16 7 -15 23 1 10 10
11 8 5 -6 -5 -15 -1 -17 25 -15 l31 2 -22 23 c-12 13 -29 23 -39 23 -10 0 -21
4 -24 10 -4 6 -15 2 -27 -10 -12 -11 -26 -20 -30 -20 -14 0 -38 -67 -31 -86 4
-12 3 -15 -5 -10 -8 5 -12 -1 -12 -16 0 -13 -7 -42 -15 -65 -18 -53 -13 -110
11 -127 34 -22 115 -48 135 -43 25 7 24 1 -1 -13 -19 -10 -68 -1 -133 25 -15
6 -17 1 -17 -48 0 -52 12 -79 55 -122 21 -22 71 -52 103 -63 36 -12 35 -13 99
64 59 72 104 136 99 141 -3 3 2 12 11 21 11 12 14 30 11 71 l-5 56 15 -35 c12
-30 12 -41 -1 -89 -18 -63 -9 -101 23 -101 24 0 26 16 3 28 -10 6 -14 16 -10
26 4 10 10 15 15 12 4 -2 14 -1 22 4 12 7 12 10 -3 16 -18 7 -24 34 -6 34 5 0
8 4 4 9 -3 5 -1 12 5 16 6 4 7 11 4 17 -4 6 0 14 7 19 10 6 11 9 2 9 -7 0 -13
5 -13 10 0 6 7 10 16 10 9 0 12 5 8 12 -5 8 -2 9 9 5 13 -5 16 -1 15 17 -1 13
-8 23 -16 22 -8 -1 -18 9 -23 22 -6 15 -5 21 1 17 14 -9 13 48 -2 82 -6 15
-12 41 -12 57 -1 24 -7 31 -36 42 -33 12 -34 13 -8 13 17 1 40 -10 61 -28 35
-31 38 -36 88 -146 36 -79 33 -71 43 -107 5 -16 14 -28 22 -28 7 0 18 -10 25
-21 7 -14 7 -19 0 -15 -5 4 -15 -3 -21 -15 -8 -15 -8 -19 -1 -15 7 5 9 1 5 -8
-3 -9 -10 -13 -15 -10 -5 3 -9 1 -9 -4 0 -15 35 -21 56 -10 18 9 18 9 1 -6
-11 -8 -26 -12 -34 -9 -13 5 -13 3 -4 -16 8 -14 18 -20 29 -17 9 3 23 2 31 -3
11 -7 10 -10 -4 -18 -12 -7 -14 -13 -6 -17 14 -9 14 -26 0 -26 -5 0 -8 4 -5 9
3 5 -1 12 -10 15 -12 5 -14 1 -9 -15 5 -16 4 -19 -6 -14 -9 6 -11 3 -6 -9 4
-10 7 -27 7 -39 0 -18 2 -19 10 -7 8 13 10 12 10 -2 0 -11 8 -18 21 -18 11 0
18 -4 14 -10 -5 -9 -14 -8 -52 7 -38 14 -41 11 -48 -52 -5 -47 -21 -92 -66
-186 -33 -68 -60 -126 -60 -129 0 -11 -11 -50 -15 -50 -3 0 -20 6 -39 14 -19
8 -60 17 -92 20 -66 6 -91 13 -115 33 -9 8 -22 12 -29 7 -7 -4 -10 -3 -5 4 3
6 2 13 -3 16 -8 5 -87 -91 -97 -118 -4 -10 51 -51 59 -44 2 2 11 -5 21 -14 10
-10 23 -18 30 -18 7 0 23 -12 37 -27 l24 -26 -25 16 c-13 9 -30 17 -36 17 -7
0 -53 -38 -103 -85 -50 -47 -93 -85 -96 -85 -3 0 35 39 85 86 49 48 90 91 90
96 0 13 -43 27 -56 17 -14 -12 -24 -1 -17 18 5 12 1 14 -18 8 -18 -5 -20 -4
-9 4 8 5 11 13 7 17 -4 4 -15 0 -24 -8 -10 -9 -62 -35 -115 -59 -53 -24 -94
-47 -91 -52 3 -5 -4 -6 -16 -2 -13 4 -21 2 -21 -5 0 -6 4 -9 8 -6 5 3 15 -6
23 -20 12 -23 14 -24 20 -7 7 16 8 15 8 -4 1 -12 5 -24 10 -28 6 -3 9 -14 8
-26 -1 -20 -2 -20 -17 0 -8 11 -26 18 -40 18 l-25 -2 -3 -309 c-2 -240 1 -311
10 -318 10 -6 10 -8 1 -8 -10 0 -13 -24 -13 -85 l0 -85 380 0 380 0 -37 49
c-21 27 -48 54 -60 60 -23 11 -31 31 -13 31 11 0 16 -5 80 -88 l40 -52 122 0
c101 0 125 3 142 17 20 17 20 17 7 1 -13 -17 -8 -18 64 -18 l77 0 -6 26 c-7
25 -5 26 21 21 l28 -5 -30 24 c-32 25 -23 34 10 10 20 -14 49 -11 39 5 -3 5
-1 9 5 9 5 0 12 -6 14 -12 4 -8 6 -7 6 3 1 12 -11 19 -35 24 -55 10 -145 53
-177 83 -69 65 -112 181 -116 307 -1 43 -7 87 -12 96 -13 25 -12 26 15 33 13
3 69 27 123 53 58 28 113 47 135 47 41 1 57 -17 20 -22 -12 -2 -20 -8 -17 -13
4 -5 -4 -10 -17 -11 -13 0 -27 -2 -33 -3 -5 -2 -18 -3 -27 -4 -22 -1 -24 -21
-3 -21 8 0 15 4 15 9 0 4 23 6 51 4 38 -3 50 -1 47 9 -7 19 28 52 47 44 9 -3
13 -2 10 4 -8 13 24 13 64 -1 17 -6 31 -17 31 -25 0 -8 6 -14 13 -14 8 0 9 -2
1 -8 -6 -4 -14 -18 -18 -32 -3 -14 -3 -19 0 -12 3 6 10 12 15 12 6 0 7 -4 4
-10 -3 -5 0 -7 8 -4 8 3 18 1 22 -5 3 -6 -1 -11 -9 -11 -9 0 -16 -4 -16 -10 0
-5 8 -10 18 -10 15 -1 15 -2 -2 -11 -14 -9 -20 -8 -27 2 -7 11 -9 11 -9 1 0
-7 7 -20 16 -29 8 -9 13 -22 10 -29 -3 -9 1 -14 12 -14 13 0 14 -2 3 -9 -10
-7 -8 -12 10 -24 17 -12 20 -19 11 -30 -9 -10 -6 -13 16 -12 20 0 30 -7 39
-28 10 -23 17 -27 34 -22 42 14 69 12 106 -7 21 -10 29 -15 18 -11 -35 12
-113 15 -131 5 -12 -6 -2 -8 33 -5 41 4 50 2 50 -11 0 -9 -4 -16 -9 -16 -5 0
-7 -4 -3 -9 3 -5 -5 -17 -17 -25 -18 -13 -21 -20 -12 -34 14 -23 8 -45 -18
-61 -16 -10 -22 -10 -28 -1 -10 17 -22 -4 -14 -24 4 -10 1 -16 -7 -17 -8 0
-26 -2 -41 -3 -16 -1 -28 1 -28 5 0 3 -7 6 -15 6 -8 0 -15 -6 -15 -13 0 -7 -8
-10 -18 -7 -13 3 -23 -5 -34 -29 -9 -18 -25 -53 -37 -76 -11 -24 -21 -45 -21
-46 0 -2 23 -4 51 -5 30 -1 48 2 45 8 -4 5 3 16 15 24 14 11 17 17 8 22 -8 6
-7 10 5 17 9 5 16 14 16 21 0 7 -4 6 -10 -3 -8 -12 -10 -12 -10 5 0 16 7 20
30 20 34 0 37 -7 13 -33 -23 -24 -26 -38 -13 -62 13 -24 74 -24 65 0 -4 8 -3
11 1 8 3 -4 14 1 23 10 9 10 13 13 9 8 -5 -6 -8 -18 -8 -27 0 -14 9 -17 45
-17 42 0 45 2 45 25 0 26 0 26 -22 7 -22 -18 -22 -18 1 8 12 14 24 38 25 52 0
14 4 26 9 26 4 0 7 7 7 16 0 8 5 12 10 9 6 -3 10 3 10 14 0 12 5 21 10 21 12
0 12 -4 0 -55 -19 -84 -21 -105 -8 -105 9 0 8 -3 -2 -10 -10 -6 37 -10 143
-10 l157 0 1 28 c0 15 0 59 0 97 0 57 1 65 10 45 6 -14 11 -56 13 -95 l2 -70
32 -3 c24 -2 32 1 32 13 0 9 5 13 10 10 7 -4 8 8 4 34 -5 33 -4 40 7 36 8 -3
22 0 32 7 15 12 16 16 2 42 -14 25 -14 27 0 16 10 -9 15 -9 15 -1 0 6 5 11 11
11 12 0 7 -98 -7 -148 l-6 -22 153 0 c102 0 162 4 178 13 39 19 115 186 104
228 -4 15 -2 20 5 15 6 -3 13 -2 17 4 4 7 17 4 35 -7 22 -12 26 -20 17 -26 -8
-6 -6 -7 7 -3 15 5 17 2 12 -18 -4 -17 -1 -26 10 -30 25 -10 34 -7 34 9 0 8
-4 15 -10 15 -5 0 -9 3 -7 8 2 7 -37 50 -50 55 -10 3 -11 37 -2 43 5 2 6 11 2
19 -3 9 1 15 8 15 8 0 10 3 3 10 -6 6 -21 6 -39 1 -23 -7 -25 -9 -9 -10 18 -1
21 -7 20 -35 -1 -32 -2 -33 -18 -19 -21 19 -23 27 -5 18 6 -4 5 0 -3 7 -8 7
-20 23 -27 34 -11 20 -9 21 26 21 20 0 52 8 71 18 35 18 35 18 17 -2 -9 -11
-16 -31 -14 -44 3 -19 11 -25 36 -27 19 -2 31 1 27 6 -6 10 34 25 43 17 2 -3
-2 -5 -10 -5 -8 -1 0 -9 17 -18 97 -53 114 -63 114 -67 0 -6 -40 10 -100 40
-28 14 -55 23 -61 19 -14 -8 18 -30 58 -38 29 -7 31 -10 22 -32 -14 -39 -11
-47 15 -40 14 3 27 2 31 -4 8 -13 -54 -77 -84 -85 l-24 -7 23 33 c20 29 21 31
4 17 -11 -10 -35 -21 -52 -24 -26 -5 -32 -3 -32 10 0 13 -5 16 -21 11 -14 -5
-19 -3 -15 3 4 6 0 14 -8 19 -8 4 -14 17 -13 28 1 11 -3 19 -10 18 -8 -2 -10
4 -6 14 12 32 -17 2 -37 -38 -17 -32 -18 -43 -9 -62 11 -20 11 -21 -4 -8 -10
7 -17 9 -17 4 0 -5 -15 -35 -34 -66 l-35 -57 232 2 232 3 26 75 c19 55 28 69
32 55 6 -18 0 -50 -18 -112 -11 -36 17 -28 39 10 13 22 19 51 18 92 0 48 1 54
8 30 4 -16 8 -47 9 -67 1 -40 15 -51 24 -20 42 131 127 321 154 344 7 6 2 -9
-12 -33 -28 -50 -32 -79 -9 -79 14 0 14 -1 0 -16 -9 -8 -14 -20 -10 -25 3 -5
0 -8 -6 -7 -7 2 -17 -6 -23 -17 -7 -11 -15 -22 -18 -25 -6 -5 -22 -64 -19 -75
0 -3 -6 -12 -14 -20 -13 -14 -13 -38 1 -75 4 -8 5 -18 5 -22 -3 -15 45 -19
192 -16 l150 3 11 45 c29 112 102 202 201 251 36 17 63 33 60 36 -6 6 24 92
35 99 5 3 5 -7 -1 -21 -18 -47 15 -42 74 11 30 27 74 66 98 86 l45 37 2 190
c1 121 -2 192 -9 196 -5 3 -10 11 -10 16 0 6 4 8 9 5 5 -3 9 22 10 56 0 45 -4
67 -16 80 -16 18 -16 18 0 12 16 -6 17 16 17 295 l0 301 -26 -4 -27 -5 27 27
26 28 0 558 c0 520 -1 560 -17 573 -17 14 -17 14 0 9 14 -4 17 1 16 32 0 31
-2 34 -10 17 -7 -15 -8 -12 -4 15 3 19 8 79 11 132 l7 97 -34 4 -34 4 33 1 32
2 0 191 0 191 -26 -6 c-15 -4 -39 -10 -55 -13 -16 -3 -29 -11 -29 -17 0 -6 -4
-4 -10 4 -13 21 -17 13 -24 -63 -5 -52 -4 -67 5 -61 8 4 9 3 5 -5 -4 -6 -11
-9 -15 -7 -4 3 -15 -18 -24 -45 -10 -27 -37 -76 -60 -110 -48 -70 -43 -69
-232 -72 -104 -2 -113 0 -157 26 -26 15 -52 36 -58 47 -15 28 -23 25 -45 -16
-11 -20 -42 -56 -69 -80 -87 -76 -173 -79 -318 -12 -55 25 -67 35 -70 58 -3
20 -1 27 9 23 8 -3 11 -8 9 -11 -9 -8 45 -50 93 -73 47 -22 130 -29 194 -16
76 16 178 138 158 190 -11 29 -7 108 7 133 8 14 9 5 5 -37 -7 -72 11 -133 38
-126 14 4 21 -3 29 -28 7 -22 21 -37 43 -46 36 -15 145 -16 252 -3 l69 9 43
72 c72 123 93 242 58 328 -19 45 -64 97 -77 89 -4 -3 -8 -1 -8 4 0 5 -10 13
-22 17 -15 4 -18 8 -10 12 23 9 93 -49 118 -99 13 -26 24 -55 24 -64 0 -14 8
-16 43 -12 24 3 56 11 73 19 l29 14 3 138 3 138 -38 -16 c-21 -9 -47 -25 -59
-35 -26 -25 -34 -25 -34 1 0 15 5 19 15 15 8 -3 15 -1 15 4 0 6 -13 10 -30 10
-20 0 -30 -5 -30 -15 0 -8 -6 -15 -12 -15 -7 0 -22 -3 -33 -6 -16 -4 -21 0
-21 15 0 11 5 19 10 18 5 -1 11 7 13 18 3 12 1 16 -4 9 -10 -14 -62 -24 -69
-13 -2 5 -16 4 -29 -1 -15 -6 -27 -6 -30 0 -9 15 26 69 42 63 8 -3 13 2 13 12
0 9 8 19 18 22 10 2 23 13 30 24 12 18 9 19 -55 19 l-68 0 0 -143 c-1 -132 -2
-145 -24 -181 -28 -45 -81 -72 -111 -56 -22 12 -26 22 -7 18 6 -1 23 2 36 6
18 6 21 10 10 17 -11 7 -11 9 3 9 11 0 15 5 12 15 -4 8 -2 15 3 15 9 0 23 88
28 178 1 18 4 35 7 37 3 3 -3 22 -13 43 l-19 38 -97 2 -98 3 30 -19 c17 -10
37 -27 45 -37 14 -18 14 -18 -12 -1 -14 9 -32 16 -40 15 -7 -2 -36 5 -65 15
-64 21 -77 16 -150 -61 -29 -30 -57 -52 -62 -48 -13 7 -26 -39 -17 -60 3 -9 2
-13 -4 -10 -30 19 3 115 60 173 l32 32 -42 0 c-35 0 -47 -5 -71 -32 -20 -23
-29 -44 -29 -69 0 -25 -7 -42 -22 -55 -19 -16 -20 -16 -9 -1 8 9 11 20 8 23
-3 3 -18 -14 -33 -37 -24 -38 -28 -41 -34 -24 -4 11 -3 25 2 32 6 7 4 14 -4
19 -7 4 -10 4 -6 -1 4 -4 3 -14 -3 -21 -6 -8 -9 -21 -5 -29 3 -8 2 -15 -2 -15
-5 0 -13 12 -19 28 -10 25 -11 23 -12 -25 -1 -42 4 -57 25 -82 14 -17 31 -28
37 -24 6 4 8 0 4 -10 -3 -9 -1 -18 6 -21 9 -3 8 -7 -3 -15 -12 -8 -11 -14 10
-36 13 -14 30 -23 38 -20 7 2 10 0 7 -5 -3 -6 2 -11 12 -11 10 -1 28 -3 41 -4
27 -3 27 5 3 53 -11 21 -22 56 -25 77 l-6 40 20 -43 c11 -24 29 -57 41 -73 11
-16 17 -34 13 -40 -4 -7 -3 -9 3 -6 6 4 22 -2 36 -13 52 -41 113 -61 193 -62
73 -2 78 0 101 27 18 21 24 24 22 10 -8 -39 -55 -60 -144 -64 -70 -2 -85 -6
-90 -21 -3 -10 -5 -22 -4 -26 1 -5 1 -20 0 -33 -1 -24 -1 -24 -15 -5 -10 13
-11 23 -4 31 7 9 7 13 0 13 -5 0 -17 -16 -26 -35 -16 -33 -52 -52 -40 -21 3 8
1 23 -5 33 -10 17 -10 16 -11 -4 0 -12 -4 -25 -10 -28 -5 -3 -10 3 -10 13 0
15 -5 19 -20 15 -11 -3 -20 -1 -20 4 0 11 35 59 61 83 15 14 14 17 -9 40 l-26
25 16 -25 c14 -24 14 -26 -15 -50 -16 -14 -35 -31 -43 -38 -10 -10 -15 -9 -24
5 -8 14 -10 14 -9 3 3 -30 -1 -40 -17 -40 -9 0 -12 5 -8 12 5 8 0 9 -14 6 -12
-4 -22 -2 -22 4 0 6 -9 8 -20 5 -11 -3 -18 -1 -14 4 7 13 -10 11 -23 -2 -18
-18 -50 6 -55 41 -4 23 -1 30 9 26 11 -5 11 -1 2 17 -16 30 -24 36 -15 12 5
-15 4 -17 -4 -9 -9 9 -8 18 5 38 10 14 22 26 27 26 5 0 7 4 4 9 -3 5 1 11 9
15 19 7 15 -14 -5 -32 -13 -10 -11 -11 13 -6 23 5 27 3 27 -15 0 -12 4 -21 10
-21 6 0 6 9 0 26 -8 20 -7 25 2 22 7 -3 13 -10 13 -16 0 -7 3 -12 8 -12 12 0
8 8 -22 50 -15 21 -32 36 -36 32 -5 -4 -5 -2 -1 5 3 6 -4 40 -17 75 -13 35
-25 89 -26 120 -2 56 -2 57 51 107 l53 51 -162 0 -161 0 14 -29 c14 -27 91
-112 125 -136 8 -6 29 -17 48 -25 19 -8 30 -15 24 -17 -33 -11 -172 96 -219
170 l-24 37 -121 0 c-111 0 -121 -1 -115 -17 6 -17 5 -17 -7 -1 -12 16 -43 17
-329 17 l-315 0 -38 -55 c-27 -39 -62 -71 -120 -109 -45 -30 -85 -55 -89 -55
-3 0 -36 -14 -72 -31 -65 -31 -66 -31 -87 -12 -12 10 -49 36 -82 57 -33 21
-79 54 -102 73 -24 19 -43 30 -43 24 0 -5 4 -12 9 -15 13 -8 20 -56 9 -62 -5
-3 -14 -17 -19 -31 -14 -37 -21 -22 -8 16 9 25 9 35 -1 44 -10 9 -11 9 -5 -3
8 -13 6 -13 -8 -1 -9 7 -14 17 -11 22 3 5 -3 9 -13 10 -11 0 -13 3 -5 6 7 3
19 -1 27 -7 10 -8 15 -9 15 -2 0 6 -4 13 -9 17 -6 3 -8 14 -6 25 2 11 -1 20
-6 20 -6 0 -8 8 -5 18 3 9 -1 25 -8 35 -11 14 -28 17 -104 16 l-90 -1 8 -29z
m2623 -131 c3 -24 8 -54 11 -68 9 -37 -3 -83 -28 -115 -19 -23 -32 -29 -68
-31 -25 -1 -55 -7 -68 -14 -12 -6 -23 -10 -25 -8 -2 2 30 42 71 88 75 86 99
133 87 178 -4 16 -2 23 4 19 6 -4 13 -26 16 -49z m-1673 -191 c0 -7 25 -46 56
-87 60 -79 89 -134 79 -151 -4 -5 -1 -8 7 -7 8 2 13 -6 12 -19 0 -12 3 -20 7
-18 10 7 33 -54 32 -89 -1 -53 -15 -146 -24 -152 -4 -2 -8 19 -8 48 0 70 -9
125 -26 162 -18 42 -50 149 -47 159 1 4 -5 10 -13 13 -8 4 -15 13 -15 22 0 8
-3 12 -6 9 -4 -4 -15 8 -24 26 -9 17 -26 37 -37 42 -12 6 -28 17 -37 24 -16
13 -17 12 -20 -11 0 -6 -8 -13 -16 -15 -13 -4 -13 -3 0 6 28 20 -17 18 -95 -4
-53 -15 -149 -81 -139 -96 3 -5 -2 -6 -10 -3 -19 7 -22 -12 -3 -19 6 -3 -2 -3
-19 0 -26 4 -33 0 -58 -36 -16 -22 -37 -71 -47 -108 -16 -57 -19 -61 -14 -23
7 59 58 162 100 205 47 47 145 92 248 114 49 11 91 22 94 25 8 8 23 -3 23 -17z
m1861 0 c-6 -8 -7 -18 -3 -22 4 -5 2 -5 -4 -2 -7 4 -15 0 -18 -9 -3 -8 -2 -12
4 -9 6 3 10 1 10 -5 0 -6 5 -8 10 -5 6 3 10 2 10 -4 0 -6 -13 -9 -30 -7 -26 3
-28 1 -19 -17 7 -11 7 -17 1 -13 -12 7 -35 -18 -25 -27 11 -11 25 -8 17 4 -5
8 -1 8 13 0 25 -13 35 -4 23 19 -9 16 -6 17 18 11 15 -4 29 -16 30 -25 2 -10
0 -16 -5 -13 -12 8 -36 -13 -58 -50 -10 -18 -26 -35 -34 -38 -9 -3 -12 -3 -8
1 3 4 -2 19 -13 34 -11 15 -17 30 -13 34 3 3 -1 6 -11 6 -10 0 -23 14 -31 32
-12 29 -11 34 5 45 10 7 25 11 32 8 8 -3 23 3 33 15 10 11 22 20 27 20 5 0 16
7 24 15 19 19 30 20 15 2z m-2051 -112 c-7 -9 -10 -19 -6 -23 4 -4 17 4 28 18
18 22 20 22 16 5 -2 -12 5 -27 17 -36 14 -12 20 -29 20 -58 0 -23 4 -41 10
-41 5 0 3 -5 -5 -10 -8 -5 -10 -10 -4 -10 16 0 0 -90 -17 -101 -8 -5 -10 -9
-5 -9 4 0 -2 -9 -15 -21 -15 -12 -20 -22 -13 -25 7 -3 10 -15 7 -27 -14 -67
-27 -107 -35 -107 -5 0 -6 6 -2 13 4 6 -2 4 -13 -6 -27 -23 -42 -4 -19 22 12
13 15 28 11 47 -4 16 -7 35 -7 42 -1 6 -5 12 -10 12 -4 0 -8 6 -8 14 0 7 -6
19 -14 26 -8 6 -13 17 -10 25 3 7 1 16 -5 20 -6 3 -11 17 -11 31 0 17 -4 23
-12 18 -7 -4 -10 -4 -7 0 4 4 1 32 -6 61 -7 30 -9 52 -5 50 5 -3 22 11 39 30
17 19 39 35 50 35 11 0 23 5 26 10 3 6 9 10 12 10 3 0 0 -7 -7 -15z m-203
-495 c75 -23 167 -73 211 -114 20 -18 38 -50 47 -80 18 -60 18 -82 1 -121
l-14 -30 5 42 c7 51 -3 86 -17 63 -8 -13 -11 -13 -22 2 -15 18 -58 34 -58 20
0 -15 -64 -10 -82 6 -23 19 -23 9 -1 -14 10 -9 18 -22 19 -29 2 -15 -28 -15
-38 0 -5 6 -12 4 -19 -5 -9 -13 -10 -12 -5 2 3 10 1 20 -5 24 -5 3 -7 15 -3
27 l6 22 -22 -22 c-13 -11 -23 -32 -24 -45 -1 -21 -5 -23 -53 -23 -28 0 -47
-3 -41 -6 6 -4 -3 -14 -20 -23 -30 -16 -33 -15 -49 3 -16 20 -33 19 -33 0 0
-6 4 -8 8 -5 4 2 8 -5 8 -16 0 -19 -1 -19 -18 2 -19 24 -38 82 -38 118 0 58
62 144 139 194 25 15 47 28 50 28 4 0 34 -9 68 -20z m-792 -19 c3 -10 28 -37
55 -60 28 -24 47 -47 44 -53 -4 -6 -2 -8 4 -5 5 4 22 -7 37 -25 15 -18 23 -34
16 -36 -6 -2 -1 -23 16 -55 27 -55 41 -69 57 -60 5 4 6 1 2 -6 -23 -36 -1
-125 42 -174 9 -10 17 -25 18 -33 3 -21 25 -45 34 -39 5 3 12 -4 15 -15 5 -16
10 -18 20 -10 9 8 15 8 20 0 3 -5 1 -10 -6 -10 -22 0 5 -20 47 -35 22 -8 30
-14 19 -14 -24 -1 -92 31 -121 56 -35 30 -69 85 -99 158 -15 39 -33 76 -38 82
-5 7 -7 19 -4 26 11 29 -64 154 -85 141 -4 -3 -8 0 -8 6 0 17 -26 40 -35 32
-5 -4 -5 -1 -1 6 5 9 1 15 -13 19 -12 3 -21 9 -21 14 0 5 -7 9 -16 9 -8 0 -13
4 -9 9 3 5 0 13 -6 17 -8 4 -9 3 -5 -4 4 -7 2 -12 -3 -12 -6 0 -11 -7 -11 -16
0 -8 -5 -12 -11 -9 -6 4 -8 14 -5 22 3 8 1 11 -4 8 -6 -3 -10 -12 -10 -19 0
-17 -45 -9 -61 10 -6 8 -19 14 -28 15 -15 0 19 15 79 34 23 7 24 7 10 -11 -14
-18 -14 -18 3 -5 9 8 15 16 12 19 -6 6 24 42 36 42 4 0 10 -8 14 -19z m-152
-101 c-3 -11 -9 -20 -13 -20 -13 0 -90 -82 -90 -96 0 -8 -5 -14 -11 -14 -5 0
-8 -4 -5 -9 3 -4 -10 -17 -29 -27 -19 -10 -36 -22 -36 -26 -3 -18 -5 -24 -17
-45 -7 -13 -22 -23 -32 -23 -22 0 -24 8 -10 44 7 21 6 24 -6 19 -8 -3 -13 -12
-10 -19 3 -8 1 -14 -4 -14 -5 0 -9 -8 -8 -17 0 -10 -3 -30 -6 -45 -5 -23 -3
-28 14 -28 11 0 20 -4 20 -10 0 -5 -5 -10 -11 -10 -6 0 -9 -7 -5 -15 3 -8 1
-15 -4 -15 -6 0 -11 10 -12 23 -1 12 -4 -5 -8 -38 -7 -60 -7 -60 -8 26 -2 86
20 195 37 184 12 -7 23 24 14 37 -3 7 -1 8 5 4 6 -3 16 3 22 14 6 11 15 18 20
15 6 -4 7 1 3 11 -5 14 -2 16 21 12 21 -4 26 -2 22 9 -3 8 -2 11 4 8 5 -3 17
6 26 20 9 13 20 22 25 19 5 -3 9 1 9 8 0 14 41 35 72 37 11 1 15 -5 11 -19z
m603 -107 c-3 -4 8 -16 24 -28 27 -20 28 -24 15 -35 -9 -7 -18 -10 -22 -7 -3
4 -12 -1 -20 -11 -11 -15 -12 -15 -7 -1 3 10 0 20 -7 25 -8 4 -10 3 -5 -4 10
-17 -5 -15 -25 4 -14 13 -20 13 -38 2 -18 -11 -22 -10 -35 7 -8 11 -12 23 -10
27 8 13 -7 9 -21 -6 -8 -7 -11 -17 -7 -21 4 -5 2 -5 -5 -2 -6 4 -10 14 -9 22
3 18 49 55 70 55 9 0 16 5 16 11 0 7 12 10 30 7 17 -3 30 0 30 6 1 6 8 -2 16
-17 9 -16 13 -31 10 -34z m962 18 c85 -44 175 -168 228 -313 20 -58 6 -45 -22
19 -33 73 -95 180 -126 214 -49 56 -108 89 -157 89 -33 0 -42 -3 -31 -10 8 -5
11 -10 7 -10 -4 0 6 -12 22 -27 47 -44 59 -53 71 -53 17 0 11 -18 -7 -23 -14
-3 -11 -6 10 -11 15 -5 27 -12 27 -18 0 -5 5 -6 10 -3 6 4 7 11 4 17 -4 6 -2
8 3 5 18 -11 23 -47 6 -47 -8 0 -11 -4 -8 -10 3 -5 1 -10 -6 -10 -7 0 -9 -3
-5 -7 12 -13 35 -11 47 3 12 15 29 10 29 -9 0 -7 -4 -6 -10 3 -6 9 -10 10 -10
3 0 -6 -9 -14 -19 -18 -13 -4 -18 -12 -15 -23 3 -11 -1 -9 -12 6 -9 12 -21 22
-26 22 -5 0 -2 -7 7 -16 13 -13 13 -19 3 -32 -10 -12 -10 -14 0 -8 7 4 12 1
12 -8 0 -14 -6 -18 -26 -15 -4 0 -11 -5 -16 -13 -7 -10 -8 -9 -4 4 3 10 1 28
-4 40 -6 16 -9 18 -9 7 -1 -20 -21 -29 -67 -29 -26 0 -33 -3 -28 -12 6 -9 3
-9 -9 1 -9 7 -24 11 -33 7 -8 -3 -25 -1 -36 5 -15 8 -19 8 -14 0 5 -7 -4 -11
-23 -11 -17 0 -31 3 -31 8 0 15 18 34 27 29 5 -3 9 4 8 16 -1 14 -8 21 -19 19
-23 -4 -20 15 3 21 11 2 19 12 17 21 -4 25 -16 31 -16 7 0 -13 -4 -20 -11 -16
-6 4 -8 14 -5 22 4 11 2 13 -9 9 -8 -3 -15 -1 -15 5 0 6 -6 7 -12 3 -8 -5 -7
0 2 11 9 11 10 16 3 11 -30 -17 1 25 70 97 47 48 158 62 225 28z m-475 -111
c14 -11 31 -20 39 -20 7 0 20 -5 28 -11 13 -9 12 -10 -2 -5 -27 8 -21 -2 10
-17 15 -8 32 -12 39 -10 13 5 71 -69 79 -101 2 -12 1 -50 -4 -85 l-9 -64 34
-30 c57 -50 83 -115 85 -206 0 -43 -5 -95 -12 -115 -6 -21 -9 -54 -6 -74 5
-31 4 -34 -5 -18 -11 18 -13 16 -29 -17 -10 -19 -32 -53 -50 -74 l-33 -40 -86
18 c-53 11 -90 14 -95 8 -6 -5 -14 -9 -20 -9 -5 0 -6 3 -2 7 3 4 -4 13 -16 21
-16 9 -17 12 -4 7 16 -5 17 -3 6 10 -16 19 -42 1 -33 -22 5 -12 2 -15 -9 -10
-10 3 -24 -3 -35 -15 -57 -63 -173 -83 -268 -47 -63 24 -97 31 -89 18 2 -4 0
-10 -6 -14 -5 -3 -10 0 -10 8 0 8 -8 17 -18 19 -31 8 -60 109 -73 248 -6 69
-9 139 -6 155 3 26 4 24 6 -10 1 -54 46 -303 60 -338 7 -19 15 -26 23 -20 19
11 39 13 33 2 -10 -15 97 -61 157 -66 84 -8 142 11 200 67 43 41 47 48 33 60
-22 18 -48 116 -42 156 5 30 3 33 -26 40 -58 12 -117 47 -117 67 0 17 -2 18
-16 6 -13 -11 -15 -10 -12 5 2 13 -8 21 -37 31 -22 8 -41 19 -43 25 -6 17 -20
11 -17 -7 1 -10 8 -17 14 -15 6 1 11 -2 11 -8 0 -13 -17 -13 -25 0 -3 6 -11
10 -18 10 -6 0 -2 -6 9 -14 15 -12 17 -17 7 -27 -7 -7 -13 -19 -13 -26 0 -15
36 -18 45 -3 3 5 13 6 22 3 12 -5 14 -3 8 7 -6 9 -4 11 4 5 14 -8 2 -25 -20
-28 -8 -2 -19 -6 -25 -10 -7 -4 -24 3 -38 14 -20 16 -24 24 -16 34 6 8 10 19
9 27 -2 7 2 23 9 35 10 19 8 28 -18 67 -51 76 -76 166 -45 166 8 0 15 7 15 16
0 20 146 163 178 175 35 13 63 11 35 -3 -21 -10 -28 -27 -24 -52 3 -13 -35
-88 -55 -112 -11 -11 -24 -19 -30 -17 -7 2 -20 -4 -30 -14 -17 -17 -17 -17
-11 0 3 9 2 17 -3 17 -6 0 -10 -6 -10 -14 0 -8 -7 -16 -15 -20 -8 -3 -15 -17
-15 -31 0 -14 -4 -25 -10 -25 -5 0 -7 -7 -4 -15 4 -8 10 -13 14 -10 4 3 7 -1
6 -8 0 -6 3 -12 7 -12 5 0 13 -8 19 -19 6 -10 13 -14 17 -9 3 5 15 0 25 -11
19 -19 19 -19 1 -12 -18 6 -18 6 -2 -12 9 -10 17 -27 17 -38 0 -16 2 -16 10
-4 8 12 10 12 16 -3 3 -9 15 -17 25 -17 17 0 18 7 14 78 l-5 77 20 -94 c13
-57 28 -100 38 -108 71 -58 210 -65 257 -13 10 11 21 37 25 58 7 31 8 33 9 9
1 -35 -22 -81 -51 -101 -12 -9 -43 -19 -69 -22 -33 -4 -49 -12 -52 -23 -6 -25
15 -124 30 -139 7 -7 13 -17 13 -22 0 -14 62 -48 100 -55 98 -18 126 -22 135
-18 5 2 24 25 42 51 67 98 110 269 66 260 -10 -2 -17 -12 -16 -22 0 -10 -7
-26 -18 -37 -18 -18 -19 -18 -25 8 -6 21 -9 24 -18 12 -17 -22 -36 -21 -36 1
0 11 -7 20 -16 20 -8 0 -12 5 -9 10 3 6 -2 10 -12 10 -14 0 -15 2 -4 9 9 6 10
11 3 15 -6 4 -9 13 -6 21 4 8 -1 18 -10 21 -9 3 -16 17 -16 29 0 13 -6 25 -12
28 -7 2 -10 7 -7 11 3 3 18 -3 32 -15 15 -11 35 -19 45 -17 12 3 7 9 -19 20
-40 18 -58 37 -32 34 10 0 19 10 24 26 11 40 3 163 -12 190 -7 13 -12 26 -11
31 1 4 -9 7 -23 7 -14 0 -30 9 -37 21 -15 23 -103 80 -112 72 -3 -3 -9 2 -12
12 -5 12 -1 23 11 31 26 19 48 17 78 -6z m-82 -87 c53 -15 91 -36 103 -58 6
-11 17 -24 24 -30 8 -6 16 -48 21 -105 9 -116 -3 -150 -65 -180 -43 -22 -89
-26 -99 -10 -3 6 4 10 17 10 32 0 76 44 101 98 21 50 36 172 20 172 -5 0 -15
11 -21 24 -7 15 -19 23 -34 23 -13 0 -42 5 -64 12 -33 11 -49 11 -78 1 -20 -6
-36 -15 -36 -20 0 -15 -57 -66 -69 -62 -6 2 -11 -1 -11 -7 0 -6 6 -11 13 -12
9 0 9 -2 -1 -6 -10 -4 -10 -8 -1 -19 16 -19 4 -18 -15 2 -28 27 -20 88 16 130
18 20 41 39 51 43 25 9 81 6 128 -6z m1205 -158 c-31 -29 -32 -34 -6 -32 11 1
20 7 20 14 0 6 4 14 9 17 16 10 5 -42 -15 -71 -10 -15 -17 -34 -16 -40 2 -7
-4 -13 -13 -13 -9 0 -13 -5 -10 -11 4 -6 14 -8 22 -5 11 5 13 2 9 -10 -3 -8
-1 -24 4 -34 8 -15 6 -19 -13 -22 -12 -2 -28 4 -35 12 -10 11 -15 12 -18 3 -3
-7 -12 -13 -20 -13 -9 0 -12 5 -8 11 4 8 0 7 -15 -1 -12 -6 -19 -15 -16 -20 3
-6 -1 -7 -11 -3 -14 5 -13 8 7 25 15 12 18 16 7 12 -13 -5 -18 -1 -18 14 0 12
4 24 10 27 6 4 7 -1 4 -12 -5 -15 -4 -15 5 -3 6 9 7 18 1 24 -14 14 -12 29 2
20 7 -4 8 -3 4 5 -4 6 -11 9 -16 6 -4 -3 -13 2 -20 10 -10 12 -10 15 0 15 7 0
18 7 24 16 9 12 17 13 37 5 32 -11 45 -4 54 30 4 15 16 31 28 37 32 16 33 14
3 -13z m-323 -86 c-6 -6 -9 -18 -6 -27 4 -10 2 -13 -5 -8 -9 5 -12 -13 -12
-67 0 -184 57 -318 135 -315 18 1 75 54 75 70 0 5 5 8 11 8 17 0 -1 -43 -32
-73 -24 -22 -37 -27 -73 -25 -24 2 -42 6 -40 9 7 11 -37 18 -60 9 -11 -4 -47
-20 -78 -34 -58 -27 -83 -33 -74 -17 3 4 19 11 36 14 23 5 28 11 24 24 -4 13
-3 15 4 5 8 -11 17 -10 51 7 22 12 41 26 41 31 0 5 7 7 15 4 11 -4 8 6 -9 37
-29 53 -46 138 -46 233 0 86 7 114 29 119 9 3 18 5 21 6 2 0 -1 -4 -7 -10z
m-1805 -18 c61 -7 66 -10 116 -64 29 -32 50 -59 48 -62 -3 -3 0 -5 7 -5 7 0 9
-4 6 -10 -3 -5 -1 -10 4 -10 6 0 10 -3 9 -7 0 -5 6 -25 15 -45 21 -45 22 -98
3 -123 -13 -18 -15 -18 -40 -2 -14 10 -26 14 -26 10 0 -4 -7 2 -15 14 -12 17
-33 28 -75 38 -33 7 -97 63 -92 79 5 16 -20 25 -44 16 -17 -7 -24 -5 -28 7 -5
11 -2 14 9 9 10 -3 13 -2 10 5 -4 5 -12 8 -18 6 -7 -3 -25 6 -42 18 -35 26
-81 43 -71 26 5 -7 -3 -9 -24 -5 -35 7 -38 -3 -13 -44 15 -26 15 -26 -15 4
-47 48 -45 104 6 145 25 19 35 20 117 14 50 -3 118 -10 153 -14z m2477 -2 c31
-9 64 -40 125 -117 33 -42 34 -42 17 -77 -12 -24 -13 -36 -5 -41 7 -4 8 -3 4
4 -4 7 -1 12 7 12 22 0 41 28 30 43 -14 18 -24 49 -14 43 5 -3 11 1 15 9 9 24
20 18 79 -38 41 -39 54 -56 46 -64 -14 -14 -3 -34 15 -27 8 3 23 -9 37 -28
l22 -33 -31 29 c-18 17 -32 26 -32 21 0 -5 -5 -4 -11 2 -9 9 -15 8 -27 -3 -12
-13 -17 -13 -31 -1 -9 8 -26 17 -39 20 -19 4 -21 3 -11 -9 6 -8 9 -17 5 -21
-3 -3 -6 -1 -6 6 0 8 -7 10 -20 6 -11 -4 -20 -2 -20 4 0 13 -22 10 -33 -4 -5
-5 -5 0 -2 13 7 24 -3 29 -25 10 -8 -7 -6 -3 4 10 12 13 15 22 7 22 -7 0 -10
4 -7 8 2 4 -7 17 -21 27 -13 11 -36 31 -51 45 -14 14 -22 18 -17 10 8 -14 -14
2 -53 38 -21 19 -7 45 19 37 15 -5 19 -4 15 4 -8 13 -66 15 -66 3 0 -5 -11
-14 -24 -22 -14 -7 -22 -18 -20 -24 9 -23 -99 -55 -113 -33 -2 4 -11 3 -19 -4
-8 -6 -14 -8 -14 -4 0 5 -9 0 -21 -11 -14 -13 -18 -25 -14 -42 8 -32 -9 -20
-25 18 -16 38 -7 71 30 113 28 32 52 42 155 60 26 5 102 -2 140 -14z m-147
-179 c5 -13 3 -13 -12 -1 -15 12 -17 12 -14 0 2 -8 -2 -13 -8 -12 -7 1 -20 -8
-30 -20 l-19 -22 23 19 c12 11 22 15 22 9 0 -5 -17 -18 -37 -29 -40 -20 -117
-93 -109 -102 3 -2 -4 -18 -15 -34 -16 -22 -20 -38 -16 -65 7 -41 38 -94 45
-75 2 7 8 9 13 6 6 -3 19 2 30 12 17 16 19 27 15 88 -4 56 -3 62 3 31 14 -64
53 -159 69 -171 19 -14 79 -7 110 12 13 9 22 24 22 39 0 14 5 25 10 25 12 0
12 0 -1 -38 -13 -38 -61 -62 -126 -62 -26 0 -43 -4 -38 -8 6 -4 10 -17 9 -30
-1 -12 7 -33 17 -46 23 -29 123 -67 185 -71 30 -2 50 -9 56 -19 9 -15 7 -17
-9 -15 -4 0 -10 -8 -14 -18 -6 -16 -8 -15 -17 8 -8 20 -19 27 -51 32 -58 7
-147 51 -167 82 -9 14 -19 48 -22 75 -2 27 -7 49 -11 48 -25 -3 -34 3 -23 14
23 23 12 28 -17 7 -37 -27 -60 -22 -89 21 -21 30 -23 43 -19 98 4 53 3 61 -9
51 -8 -6 -14 -9 -14 -5 0 4 -11 -1 -25 -10 -14 -9 -23 -19 -20 -22 3 -3 -5
-10 -17 -16 -52 -26 -78 -131 -71 -289 2 -45 5 -88 8 -94 2 -7 1 -13 -4 -13
-4 0 -8 -7 -8 -15 0 -12 3 -12 16 -2 12 9 13 9 7 0 -4 -7 -2 -13 3 -13 6 0 13
0 16 0 2 0 15 -11 28 -24 44 -44 164 -61 221 -31 23 12 26 13 17 1 -7 -8 -33
-19 -59 -26 -58 -13 -124 -1 -192 36 -25 14 -56 26 -68 27 -26 2 -26 0 -9 35
8 19 10 59 7 129 -4 88 -7 101 -20 93 -11 -8 -12 -12 -3 -18 17 -11 3 -27 -27
-30 -18 -1 -21 0 -11 7 8 5 16 20 18 33 2 16 0 19 -6 10 -4 -8 -10 -13 -12
-11 -6 4 -79 -33 -79 -40 0 -4 -11 -8 -25 -9 -24 -2 -32 8 -18 22 16 16 10 33
-11 29 -17 -4 -18 -3 -5 6 9 6 35 12 57 13 23 2 42 7 42 11 0 5 4 6 9 3 5 -3
11 4 13 17 5 27 -1 49 -12 42 -4 -3 -14 3 -21 13 -13 15 -12 16 4 3 9 -7 17
-10 17 -5 0 5 7 0 15 -10 8 -11 15 -16 15 -11 0 5 6 1 13 -9 13 -18 15 -18 37
5 12 13 29 38 36 56 15 34 80 99 120 121 14 7 34 10 44 7 11 -4 20 -2 20 3 0
11 106 121 140 145 29 20 51 19 58 -3z m-1993 -197 c36 -60 94 -140 130 -180
l64 -71 -19 -54 c-11 -29 -33 -65 -50 -80 -27 -25 -33 -26 -52 -15 -32 17 -52
37 -38 37 6 0 -8 18 -31 40 -38 36 -40 40 -25 55 9 9 14 21 11 26 -7 11 -7 11
32 0 20 -6 35 -6 39 0 9 16 24 -1 24 -27 0 -13 4 -24 10 -24 5 0 7 6 4 13 -3
8 2 14 11 14 18 0 18 -2 4 -28 -6 -12 -17 -18 -25 -15 -9 3 -12 1 -9 -4 3 -6
1 -10 -4 -10 -6 0 -12 8 -12 18 -2 23 -2 24 6 47 5 14 4 16 -2 7 -5 -7 -17
-10 -25 -7 -22 9 -32 -11 -10 -20 14 -6 12 -9 -12 -20 l-29 -12 24 -13 c13 -7
32 -21 42 -31 22 -24 37 -24 37 -2 0 15 1 15 13 -2 11 -14 16 -15 22 -5 6 9 4
11 -5 5 -9 -5 -11 -4 -6 4 4 6 11 9 16 6 5 -3 11 3 14 12 12 42 14 73 4 79 -7
5 -8 2 -3 -6 5 -9 3 -11 -6 -6 -8 3 -22 9 -31 12 -19 7 -25 34 -8 34 5 0 7 7
4 15 -6 14 -8 13 -20 -2 -12 -16 -13 -15 -9 14 2 19 -2 36 -11 44 -11 9 -14 8
-15 -2 0 -8 -4 -3 -10 9 -5 13 -7 27 -5 30 2 4 -8 18 -21 32 l-25 25 17 -27
c14 -23 15 -28 3 -28 -8 0 -21 18 -28 40 -7 21 -16 38 -21 37 -4 -1 -14 7 -22
18 -9 11 -18 17 -21 14 -3 -3 8 -20 25 -38 31 -34 33 -51 8 -60 -12 -3 -12 -2
-1 12 11 13 10 16 -5 21 -28 9 -38 6 -35 -11 3 -11 -1 -14 -13 -9 -9 3 -19 6
-21 6 -2 0 -4 5 -4 10 0 6 5 10 11 10 16 0 41 29 34 40 -3 5 -13 10 -22 10 -9
0 -13 3 -9 8 4 4 12 7 18 7 6 0 12 8 14 18 1 9 -4 17 -11 17 -19 0 -26 27 -11
39 10 8 16 8 25 -2 6 -8 9 -16 7 -18 -3 -2 9 -20 26 -39 l30 -35 -24 45 c-27
49 -40 80 -33 80 2 0 33 -48 70 -107z m2905 -857 c63 -2 123 -7 133 -11 29
-12 19 -26 -15 -20 -23 4 -29 2 -18 -4 8 -5 17 -8 20 -6 3 1 11 -3 17 -11 7
-7 9 -15 4 -19 -5 -3 -12 1 -14 7 -4 8 -6 7 -6 -4 -1 -20 21 -36 27 -19 5 14
31 -16 32 -37 0 -10 -4 -9 -16 2 -8 9 -23 16 -33 16 -9 0 -22 5 -28 11 -19 19
-10 -23 9 -44 11 -13 23 -17 40 -12 18 5 20 4 8 -4 -8 -6 -24 -11 -35 -11 -16
0 -17 -2 -5 -10 8 -5 11 -12 7 -16 -3 -4 -14 -1 -24 7 -9 8 -14 9 -10 3 4 -7
0 -14 -8 -18 -8 -3 -15 -11 -15 -18 0 -9 3 -9 10 2 9 13 11 13 20 0 7 -11 10
-11 10 -2 0 7 4 11 9 8 5 -4 11 0 14 6 3 10 9 8 23 -4 17 -17 17 -18 -3 -40
-11 -13 -23 -30 -26 -38 -4 -10 -6 -8 -6 6 -1 12 9 28 22 37 12 8 19 18 15 22
-13 14 -58 -23 -51 -42 4 -11 3 -14 -5 -9 -7 4 -12 2 -12 -3 0 -6 5 -11 12
-11 9 0 9 -3 -1 -12 -10 -11 -15 -9 -26 5 -7 10 -26 22 -42 26 -15 5 -27 12
-26 17 0 5 -5 15 -13 22 -10 9 -14 10 -14 1 0 -7 -8 -5 -21 7 -17 16 -22 16
-31 4 -8 -12 -9 -12 -4 3 3 9 1 17 -5 17 -6 0 -7 5 -4 10 3 6 2 10 -3 10 -6 0
-12 7 -16 15 -4 10 1 15 14 15 11 0 20 -7 20 -16 0 -8 5 -12 10 -9 6 4 8 10 5
15 -3 5 3 14 12 20 15 8 13 9 -9 4 -17 -4 -35 0 -50 10 l-22 16 22 0 c23 0 32
19 10 21 -10 0 -10 2 0 6 15 6 16 33 1 33 -5 0 -7 5 -4 11 4 6 13 8 21 5 7 -3
16 -1 19 4 4 6 -16 10 -47 10 -56 0 -104 -22 -92 -42 4 -7 2 -8 -4 -4 -7 4
-12 0 -12 -10 0 -10 -9 -27 -19 -38 -32 -35 -59 -116 -57 -176 1 -40 5 -54 14
-52 8 1 11 -2 7 -8 -3 -6 -11 -7 -17 -4 -7 5 -9 2 -6 -7 3 -8 11 -41 18 -73
12 -58 53 -120 74 -113 12 4 46 -41 46 -60 0 -8 -7 -10 -17 -6 -15 6 -16 5 -3
-9 8 -9 19 -13 24 -10 5 3 6 0 2 -6 -6 -11 -3 -13 19 -12 3 0 15 -9 27 -20 12
-11 26 -20 32 -20 5 0 7 -3 4 -6 -12 -11 -112 49 -158 95 -64 64 -94 151 -95
276 0 88 1 93 55 211 l55 121 45 -3 c25 -2 97 -5 160 -8z m-1940 -431 c35 -35
65 -63 67 -61 2 2 22 -13 45 -33 41 -37 68 -78 68 -105 0 -14 -3 -13 -20 2
-11 9 -16 18 -10 20 5 2 7 8 4 14 -4 6 -13 1 -21 -13 -14 -24 -14 -24 -10 -1
3 13 0 22 -8 22 -7 0 -11 -10 -9 -25 2 -25 2 -26 -54 -20 -32 4 -64 6 -72 6
-9 0 -16 9 -16 19 0 15 3 17 16 8 8 -6 3 0 -12 15 -32 32 -45 34 -53 7 -4 -11
-11 -18 -16 -14 -6 3 -8 12 -5 19 2 7 -2 16 -11 19 -11 5 -14 1 -10 -13 3 -11
-1 -22 -8 -25 -8 -3 -11 2 -8 13 3 11 -4 21 -19 28 -22 11 -22 11 8 11 17 -1
36 2 43 6 7 4 10 2 9 -5 -5 -21 23 -22 29 -1 3 13 10 19 19 15 8 -3 14 -2 13
3 -4 26 3 25 15 -1 8 -19 15 -25 20 -17 4 7 2 12 -4 12 -6 0 -8 5 -5 10 4 6
12 8 18 4 7 -3 1 4 -12 16 -16 13 -27 17 -31 10 -4 -6 -15 -8 -25 -4 -14 6
-16 4 -10 -7 8 -12 6 -12 -8 0 -13 10 -20 11 -30 2 -8 -6 -23 -12 -35 -14 -12
-2 -32 -13 -45 -25 -13 -12 -27 -19 -30 -15 -4 3 -7 0 -7 -8 0 -12 -2 -11 -10
1 -9 13 -12 12 -25 -4 -19 -25 -19 -32 0 -40 8 -3 15 -1 15 4 0 6 -5 10 -11
10 -5 0 -7 5 -3 11 4 8 11 4 19 -11 10 -18 13 -19 18 -7 3 9 15 20 25 26 17 9
19 8 15 -9 -3 -11 -9 -18 -13 -15 -5 3 -11 1 -15 -5 -13 -20 23 -9 39 13 9 12
14 16 11 9 -4 -7 -1 -20 6 -28 7 -8 8 -14 3 -13 -24 4 -26 -2 -6 -16 20 -15
21 -18 6 -40 -15 -23 -72 -50 -82 -40 -3 3 1 5 9 5 25 0 -13 20 -39 20 -18 0
-22 5 -19 23 2 12 2 16 0 9 -3 -8 -11 -11 -19 -8 -9 3 -12 1 -9 -4 3 -6 2 -10
-4 -10 -5 0 -12 6 -14 13 -3 6 -6 2 -6 -11 -1 -13 4 -33 10 -45 10 -21 9 -21
-5 -3 -8 10 -18 38 -22 62 -15 105 28 181 137 238 65 35 109 51 144 55 6 1 39
-28 75 -64z m100 -308 c71 -50 125 -115 157 -187 9 -22 8 -26 -7 -27 -10 -1
-23 12 -33 32 -12 25 -22 33 -36 30 -12 -2 -30 8 -48 25 -15 16 -35 29 -43 29
-10 0 -11 -2 -2 -6 6 -2 12 -9 12 -15 0 -6 -6 -5 -15 2 -12 10 -13 16 -4 26 6
8 9 14 5 14 -17 0 -22 3 -29 16 -4 8 -14 14 -21 14 -8 0 -19 7 -26 15 -10 12
-10 18 1 32 8 9 9 14 2 10 -6 -4 -14 -1 -17 5 -3 9 -11 6 -25 -11 -16 -17 -21
-19 -21 -8 0 9 10 23 23 32 29 21 70 12 127 -28z m952 -86 c2 -17 1 -28 -4
-25 -4 3 -8 -11 -8 -31 0 -22 4 -34 10 -30 6 3 10 1 10 -6 0 -9 4 -9 15 1 21
18 38 2 30 -29 -9 -36 -25 -53 -46 -48 -12 3 -20 -5 -28 -33 -13 -43 -39 -70
-73 -75 -12 -1 -42 -6 -65 -10 -35 -6 -43 -5 -43 8 0 10 6 13 21 10 30 -8 99
17 99 36 0 9 14 39 30 66 25 42 30 61 30 116 0 56 5 79 16 79 1 0 4 -13 6 -29z
m-1207 -3 c-1 -13 -7 -36 -13 -51 -7 -16 -12 -30 -12 -33 0 -9 37 -3 47 7 6 6
44 15 85 19 40 4 78 9 83 11 6 2 11 0 13 -6 2 -5 -19 -14 -46 -20 -46 -9 -49
-11 -39 -32 5 -13 15 -23 22 -23 22 0 85 -93 72 -106 -2 -2 -25 23 -52 55
l-49 59 -34 -26 c-19 -14 -45 -43 -58 -64 -22 -34 -44 -50 -44 -31 0 19 54 82
90 103 46 29 48 37 16 51 -18 8 -30 7 -54 -5 -17 -9 -41 -16 -52 -16 -24 0
-80 -54 -80 -77 0 -22 -25 -9 -28 15 -4 23 41 95 98 154 19 21 35 38 36 38 0
0 0 -10 -1 -22z"/>
<path d="M1074 3984 c3 -9 6 -20 6 -24 0 -20 94 -102 173 -150 47 -29 88 -59
91 -66 4 -12 17 -8 58 16 29 16 82 44 118 62 63 32 190 144 190 167 0 8 -96
11 -321 11 -289 0 -321 -2 -315 -16z"/>
<path d="M22 2159 c-12 -5 -22 -16 -22 -24 0 -9 5 -13 10 -10 6 3 10 1 10 -4
0 -6 -4 -11 -10 -11 -6 0 -10 -41 -10 -102 l1 -103 20 25 c15 18 20 35 17 66
-3 38 0 44 26 60 38 22 76 55 76 66 0 4 -3 7 -7 6 -5 -1 -18 3 -29 10 -12 6
-24 8 -28 5 -3 -3 -6 -2 -6 4 0 16 -22 21 -48 12z"/>
<path d="M143 1808 c-41 -11 -43 -23 -3 -14 22 4 30 2 30 -9 0 -7 -4 -17 -10
-20 -5 -3 -10 -16 -10 -28 0 -20 0 -20 -15 -1 -15 19 -16 19 -13 -1 3 -24 -30
-65 -52 -65 -13 0 -13 -1 0 -10 12 -8 10 -10 -9 -10 -18 0 -22 4 -18 19 3 14
1 18 -9 14 -9 -3 -11 -15 -8 -36 4 -24 3 -28 -4 -17 -6 8 -9 17 -6 21 2 4 0
10 -6 14 -7 4 -10 -45 -10 -143 l0 -149 31 -7 c55 -11 124 -7 145 9 10 8 25
15 33 15 20 0 53 41 46 58 -4 12 -3 12 9 3 10 -9 15 -8 19 3 3 7 -8 26 -25 42
-43 42 -47 53 -59 168 -15 150 -17 154 -56 144z"/>
<path d="M762 1583 c-6 -11 -8 -24 -4 -28 4 -5 2 -6 -3 -2 -14 8 -38 -8 -41
-27 -1 -9 3 -13 12 -9 8 3 14 -1 14 -11 0 -9 -4 -16 -8 -16 -5 0 -9 -6 -9 -12
0 -7 -3 -23 -7 -35 -5 -16 -3 -23 5 -23 8 0 6 -7 -6 -20 -9 -10 -15 -26 -12
-35 4 -8 2 -15 -4 -15 -6 0 -9 -7 -6 -15 4 -8 3 -17 -2 -19 -4 -3 -8 0 -9 7
-1 20 -20 73 -21 60 -1 -7 -6 -13 -12 -13 -6 0 -9 7 -6 15 4 8 2 17 -4 21 -6
3 -8 13 -4 22 3 9 3 13 -1 9 -11 -11 -34 50 -34 89 0 34 -19 59 -21 27 -1 -12
-3 -10 -8 7 l-7 25 -13 -24 c-7 -13 -11 -37 -9 -53 4 -24 0 -31 -19 -39 -30
-11 -29 -23 5 -47 21 -16 24 -23 15 -33 -10 -10 -14 -6 -23 15 -6 17 -14 24
-22 20 -7 -4 -8 -3 -4 4 4 7 2 12 -5 12 -7 0 -5 10 6 28 13 20 7 16 -26 -15
-34 -32 -49 -41 -67 -37 -13 4 -22 2 -22 -5 0 -5 -7 -8 -16 -4 -11 4 -12 8 -4
13 8 5 0 12 -21 19 -17 6 -32 11 -33 11 -1 0 -2 -11 -2 -25 -1 -14 1 -23 5
-21 4 3 8 -5 8 -17 2 -18 0 -19 -8 -7 -13 18 -3 -65 14 -125 11 -39 96 -134
121 -136 6 0 20 -3 31 -6 36 -8 139 -25 165 -27 22 -1 26 4 34 47 5 26 13 47
18 47 4 0 8 6 8 14 0 7 6 19 14 25 17 14 40 75 26 66 -6 -4 -10 -1 -10 4 0 6
6 11 13 11 14 0 36 32 44 64 11 49 16 159 6 153 -6 -4 -8 3 -6 16 2 12 0 33
-5 47 -9 24 -9 24 -20 3z"/>
<path d="M180 1350 c-8 -5 -49 -10 -90 -10 -56 0 -71 -3 -60 -11 12 -9 11 -10
-7 -6 l-23 5 1 -216 c0 -120 3 -211 6 -204 2 6 8 10 13 7 12 -7 60 16 54 26
-3 5 1 6 9 3 17 -6 87 21 87 33 0 4 11 9 24 9 13 1 35 10 49 20 28 21 72 82
65 89 -2 3 -11 -6 -18 -20 -7 -14 -17 -25 -22 -25 -5 0 3 16 18 35 14 19 24
42 20 50 -3 8 -2 14 2 14 4 -1 17 2 29 6 l22 7 -20 28 c-11 15 -29 58 -39 96
-16 60 -19 64 -19 32 -1 -29 -5 -38 -18 -38 -17 -1 -17 -2 -1 -13 17 -14 13
-30 -10 -35 -9 -2 -12 4 -7 17 3 11 1 22 -5 26 -8 5 -8 11 1 21 9 11 9 14 -1
14 -7 0 -10 7 -6 16 6 14 4 15 -10 3 -14 -11 -15 -10 -12 6 4 21 -11 29 -32
15z"/>
<path d="M1020 625 c-9 -10 -16 -12 -20 -5 -4 6 -13 5 -26 -5 -18 -15 -18 -15
0 -8 13 4 17 3 12 -5 -4 -7 -15 -12 -24 -12 -13 0 -13 -2 3 -14 18 -13 18 -15
2 -39 -30 -46 -4 -173 52 -262 14 -22 24 -43 23 -47 -1 -5 4 -8 12 -8 8 0 23
-10 33 -23 11 -13 30 -23 48 -23 48 -3 51 -4 36 -13 -9 -6 -10 -11 -2 -15 5
-4 17 7 26 24 16 31 12 54 -8 47 -18 -6 -47 12 -47 28 0 8 6 15 14 15 8 0 16
6 19 13 6 16 36 -21 37 -45 0 -21 11 -23 28 -6 9 9 13 4 19 -23 4 -19 6 -37 5
-41 -1 -5 7 -8 18 -8 18 0 19 -3 10 -21 -7 -11 -9 -23 -6 -27 3 -3 7 -3 9 -1
1 2 19 29 39 59 19 30 67 92 106 137 46 52 67 85 60 89 -7 4 -8 3 -4 -4 12
-20 -4 -13 -32 14 -15 14 -41 31 -59 39 -17 7 -41 23 -53 35 -12 12 -28 19
-36 16 -8 -3 -14 -1 -14 3 0 5 -7 12 -16 15 -8 3 -12 2 -9 -4 3 -6 -1 -10 -10
-10 -9 0 -14 4 -10 9 9 15 -94 58 -152 63 -7 1 -10 5 -7 10 5 8 -16 12 -49 8
-15 -1 -18 4 -14 29 6 35 4 37 -13 16z"/>
<path d="M3960 475 c-18 -13 -38 -22 -43 -18 -6 3 -7 1 -4 -4 7 -11 -20 -28
-36 -24 -5 1 -6 -2 -3 -7 3 -5 -6 -19 -19 -30 -28 -24 -29 -30 -15 -66 7 -18
6 -25 -2 -23 -18 4 -30 -63 -26 -139 5 -79 12 -96 33 -87 11 3 15 21 15 57 0
83 16 86 23 4 4 -40 11 -88 18 -106 10 -29 14 -32 54 -32 l43 0 1 165 c1 97
-3 165 -8 165 -5 0 -21 -4 -35 -10 -20 -7 -26 -6 -26 4 0 15 21 26 51 26 17 0
19 8 19 75 0 41 -1 75 -3 75 -2 0 -18 -11 -37 -25z"/>
</g>
</svg>
